<?xml version="1.0" standalone="no"?>
<!DOCTYPE svg PUBLIC "-//W3C//DTD SVG 20010904//EN"
 "http://www.w3.org/TR/2001/REC-SVG-20010904/DTD/svg10.dtd">
<svg version="1.0" xmlns="http://www.w3.org/2000/svg"
 width="1024.000000pt" height="1024.000000pt" viewBox="0 0 1024.000000 1024.000000"
 preserveAspectRatio="xMidYMid meet">

<g transform="translate(0.000000,1024.000000) scale(0.100000,-0.100000)"
fill="#000000" stroke="none">
<path d="M0 5120 l0 -5120 5120 0 5120 0 0 5120 0 5120 -5120 0 -5120 0 0
-5120z m5244 2410 c243 -62 417 -269 441 -526 15 -155 -49 -337 -159 -453 -34
-34 -73 -69 -88 -77 -22 -11 -96 -14 -376 -14 l-349 0 -39 28 c-105 76 -197
218 -224 343 -17 76 -8 257 16 329 42 126 172 271 294 328 138 64 331 81 484
42z m824 -361 c256 -102 584 -328 797 -550 358 -373 569 -794 652 -1301 25
-150 25 -560 0 -718 -51 -329 -141 -580 -303 -850 -168 -280 -432 -565 -685
-740 -340 -236 -684 -378 -1059 -436 -143 -22 -573 -24 -715 -3 l-90 14 -3
229 -2 228 27 -5 c16 -2 96 -17 178 -32 136 -26 172 -28 385 -29 220 0 243 1
363 27 235 50 481 145 618 238 132 89 248 218 358 399 35 58 94 152 131 210
171 265 259 504 306 830 23 161 16 474 -15 615 -77 358 -216 654 -419 894 -54
62 -57 70 -63 133 -20 222 -235 398 -486 398 -40 0 -73 4 -73 10 0 5 7 35 15
67 19 71 19 243 1 336 -7 38 -9 67 -4 67 5 0 44 -14 86 -31z m-1913 -26 c-42
-165 -20 -370 55 -530 16 -35 28 -63 27 -64 -1 0 -105 -3 -232 -6 -188 -5
-239 -9 -284 -24 -118 -41 -210 -124 -265 -239 -31 -64 -31 -67 -36 -260 -6
-193 -6 -196 -37 -260 -39 -82 -68 -177 -96 -316 l-22 -109 -63 -7 c-157 -17
-310 -166 -357 -345 -31 -117 -13 -339 34 -430 71 -141 217 -247 349 -255 32
-2 44 -8 48 -23 13 -44 66 -157 99 -213 l35 -58 7 -315 c3 -173 3 -341 -1
-373 l-8 -60 -57 60 c-182 191 -315 379 -432 614 -103 209 -169 416 -205 653
-24 154 -25 534 -1 702 37 261 112 495 244 758 187 375 523 736 898 968 79 48
285 158 299 159 4 0 5 -12 1 -27z m1950 -724 c31 -8 56 -24 80 -50 l35 -39 0
-188 0 -187 46 -55 c58 -70 118 -195 138 -287 9 -40 16 -117 16 -173 0 -239
-76 -418 -244 -578 l-75 -71 87 -88 c70 -70 98 -107 134 -179 69 -134 92 -224
90 -364 -1 -232 -67 -386 -234 -548 -114 -111 -217 -166 -402 -212 l-118 -30
-659 0 -659 0 0 -345 c0 -295 -2 -345 -15 -345 -22 0 -220 86 -325 142 -52 28
-136 78 -187 112 l-92 61 -1 411 0 411 122 6 c66 4 484 7 928 7 l807 0 60 30
c70 35 136 101 166 168 30 66 30 197 -1 265 -29 65 -112 150 -175 178 l-52 24
-822 3 -821 3 34 50 c45 68 67 147 67 240 0 92 -22 164 -74 243 -22 32 -39 60
-39 62 0 2 370 4 823 4 702 0 831 2 874 15 63 19 135 81 171 149 24 46 27 61
27 156 0 91 -3 111 -24 150 -35 68 -67 106 -115 140 -90 61 -71 60 -1058 60
l-898 0 0 196 0 195 76 35 75 34 874 0 c602 0 882 -3 902 -11 25 -10 30 -8 48
18 36 51 122 131 164 152 76 39 166 50 246 30z m655 -1344 c0 -35 -45 -151
-80 -205 -39 -60 -135 -150 -161 -150 -4 0 -28 34 -53 74 l-47 75 36 49 c19
27 49 79 65 116 l30 66 105 0 105 0 0 -25z m-3105 -128 c79 -45 110 -157 63
-227 -43 -62 -92 -93 -156 -98 -49 -3 -63 0 -99 24 -96 63 -112 186 -35 268
56 60 154 74 227 33z"/>
<path d="M5006 7384 c-9 -8 -19 -33 -22 -54 -5 -33 -12 -41 -44 -54 -47 -19
-97 -60 -115 -97 -19 -36 -19 -122 -1 -157 32 -62 93 -97 204 -118 135 -25
165 -48 141 -105 -17 -42 -56 -59 -134 -59 -65 0 -67 1 -115 46 -40 37 -54 45
-74 40 -30 -7 -56 -32 -56 -53 0 -57 82 -135 157 -149 30 -6 33 -9 33 -43 0
-51 23 -81 64 -81 43 0 56 16 56 70 l0 46 45 12 c106 28 182 149 156 245 -15
51 -59 99 -112 121 -19 8 -75 22 -125 30 -66 12 -93 21 -106 37 -25 30 -22 54
8 78 53 42 145 35 198 -14 34 -32 60 -32 92 1 20 19 24 31 19 52 -12 49 -40
69 -152 113 -18 7 -23 17 -23 42 0 57 -58 88 -94 51z"/>
<path d="M5942 6212 c-62 -48 -112 -91 -110 -97 1 -5 29 -27 62 -48 32 -21 83
-62 112 -92 l54 -54 0 190 c0 104 -1 189 -2 188 -2 0 -54 -40 -116 -87z"/>
</g>
</svg>
